<?xml version="1.0" encoding="UTF-8"?>
<svg id="Layer_1" xmlns="http://www.w3.org/2000/svg" version="1.1" viewBox="0 0 800 800">
  <defs>
    <style>
      .st0 { fill: #f3f3ee; }
      .st1 { fill: #deb55a; }
      .st2 { fill: #297456; }
      .st3 { fill: #f7f8f4; }
      .st4 { fill: #134f3d; }
      .st5 { fill: #ba924a; }
    </style>
  </defs>
  <path class="st4" d="M219.35,193.99c-55,48.1-89.01,115.89-93.91,189.39-6.38,95.52,37.94,188.04,115.75,243.57,100.56,71.76,233.11,67.78,329.12-8.45,4.06-2.08,7.19-5.93,10.34-8.81l13.71-12.55,12.54-13.26,5.35-6.57c2.89-3.55,5.69-7.23,8.44-10.82,16.36-21.28,28.89-45.35,38.12-70.63,2.9-.15,5.33,2.19,8.09,2.83,1.39-.49,3.53-2.43,6.03-1.47-40,114.22-146.92,191.43-267.92,193.47-121,2.05-230.47-71.5-274.31-184.31-43.84-112.8-12.77-240.97,77.86-321.18,5.24,2.89,8.54,2.79,10.8,8.78Z"/>
  <path class="st2" d="M672.93,497.22c-2.5-.96-4.64.98-6.03,1.47-2.76-.64-5.19-2.98-8.09-2.83,12.8-35.05,18.26-72.64,16.23-109.62-4.76-86.69-50.62-165.23-122.2-213.96-104.85-71.39-239.07-60.86-333.49,21.71-2.26-5.99-5.56-5.89-10.8-8.78,98.54-87.21,243.55-96.85,352.77-23.47,109.22,73.39,155.1,211.28,111.61,335.47Z"/>
  <path class="st3" d="M675.04,386.24l-4.07,1.51c-2.82-.7-5.05-.19-7.81-.37l-5.86-.3c-4.41-80.07-44.58-150.65-110.08-197.2-1.9,1.31-3.44,3.87-3.12,5.97,65.97,46.6,105.65,120.8,107.17,201.19-.34-.16-1.43-.24-1.75.04-.5.44-.7,1.72-.63,2.91l.21,3.37c.04.63,1.26,1.03,2.04.67l-.13,10.98-1.44.15c-.55.06-.87.78-.56,1.26.27.42,1.38.61,1.94.58l-3.07,25.82-4.79-1c-3.71-.86-2.31,3.54-2.52,5.09-.52,3.77.17,6.9,1.54,10.04l-.95,3.49c-.22.81,1.7,1.58,2.88,1.44l-4.24,15.03c-2.28-.84-3.34,2.14-4.95,2.98-1.17.61-3.74-1.35-4.85-.58-1.01.71-2.59,3.25-1.21,3.81l3.86,1.58c-1.93,2.29-2.72,3.62-2.79,5.75-.06,1.76,1.27,3.7,3.44,4.57l-4.98,12.15c-7.28,2.4-11.13,13.64-7.08,14.05l-6.15,12-1.19-.17c-7.75-1.11-8.36-5.72-12.11-9.29l6.8-12.94c1.75.23,3.17.25,5.03-.38-.99-6.37,4.39-9.5,1.03-12.56l2.98-8.48,2.08-4.07c-2.53-.05-2.49,2.57-3.7,3.58l-5.01,4.18c-4-.51-6.41,2.41-8.43,2.01-2.18-.43,1.11-3.76,1.6-7.17l10.39-11.18c.88-.05,2.26-.13,2.79-.91s.59-1.83.63-2.76c.02-.42.42-.93.75-1.19.67.19,1.81-.03,2.12-.57.41-.7.16-1.99-.04-2.76,8.15-11.62,15.57-25.26,18.16-39.47l1.5-.11c.46-.01.8-.66.35-1.2-.24-.28-.66-.69-1.06-.85,1.92-10.7,1.44-22.43-5.79-30.98,1.47-.41,2.26-1.91,1.56-3.61-1.07-2.63-4.61-3.08-6.59-1.15-9.74-7.05-22.53-7.38-33.87-4.36.28-1.49-.5-1.76-1.58-1.93-2.07-.33-2.94.55-2.32,2.41l-18.98,7.95c.09-.73,0-1.5-.32-1.62l-2.56-.96c-1.89-.71-1.56-3.27-1.42-5.1,3.67-2.11,7.24-4.39,12.61-5.59-1.97-3.13-4.27-3.94-7.7-5.57l2.38-47.01c5.77-2.21,10.76-6.14,11.7-11.43,1.25-7.03-1.68-12.9-6.57-16.01-6.15-3.91-12.43-1.84-18.6,1.64l-62.73-39.65c.59-7.82-.91-15.61-8.88-18.55-6.62-2.44-14.97-.46-18.72,7.59l-56.09-12.4c-2.01-7.42-6.66-13.8-14.82-14.04s-13.27,6.23-15.46,14.03l-55.96,12.18c-4.32-5.88-10.77-10.22-17.91-7.87-7.64,2.51-12,9.7-9.46,18.65l-33.01,20.95-30.68,19.28c-5.33-2.97-11.32-5.78-17.67-2.25-4.96,2.76-8.38,8.37-7.61,14.96s6,10.49,12.04,12.87l2.47,47.18c-4.74,1.6-8.16,3.78-9.04,8.2l22.94,17.24c4.81-4.91,6.05-11.8,2.68-18.32l14.79-12.93.05,45.3,9.25,8.1c2.24,1.96,4.1,4.52,6.82,5.9l3.16,4.07c9.88,9.9,14.58,22.79,15.5,36.31l.45,6.57c.23,3.35.8,6.9,3.42,9.66l62.66.15c.1,1.37.84,2.31,1.81,3.5l24.6,30.4c.72.89,2.03,1.64,1.59,2.7-.68,1.63-1.78,1.93-3.59,1.32l-58.23-19.61-2.48-7.74c-4.53-5.97-13.58-7.32-19.44-2.62,7.13,6.28,13.53,11.46,20.91,16.24l59.8,20.08c.55,4.52,1.63,8.99,4.47,11.76.01.71.2,1.36.15,1.8-.25,2.1-4.13.99-5.09,2.3-1.75,2.4,3.8,6.98-3.64,12.62-22.07-13.91-44.05-28.06-65.44-43.73l-16.21-12.97c-8.92-7.14-15.29-16.92-14.95-28.77.49-16.74-7.3-29.69-19.42-39.73l-10.89-10.32c-20.25-16.33-40.35-32.27-61.7-47.14-1.52-1.06-4.39-.34-4.94.64-.68,1.23-.43,3.09.95,4.39l34.43,32.51,27.97,27.09c1.33,1.29,1.68,4.28.76,5.56-1.55,2.15-4.85.98-6.75-.72l-48.56-43.32-7.7-6.31-7.93-7.07c-1.44-1.28-2.83-2.52-4.75-1.67-1.78.79-2.54,3.53-.84,5.24l7.47,7.52c1.81,1.82,3.27,3.55,5.41,5.71l48.63,49.17c1.6,1.62,2.19,3.42,1.27,5.29-.66,1.34-3.91,2.72-5.67,1.06l-64.14-60.57c-1.23-1.16-1.87-2.22-3.3-2.29-1.29-.07-2.38.8-2.87,1.93-.65,1.49-.21,2.95,1.07,4.37l34.58,38.35,25.35,26.6c1.38,1.45.52,4.68-.89,5.55-1.79,1.11-3.64.81-5.54-1.12l-61.88-62.9c-1.27-1.29-3.4-.8-4.28-.28s-2.08,3.04-1.02,4.42c15.96,20.84,31.58,41.33,48.8,61.1l13.29,13.78c10.27,10.65,24.01,15.78,39.03,14.67,23.58-1.75,35.16,6.77,52.94,21.54,21.8,18.13,43.07,36.03,66.08,53.27l23.22-13.14c2.2-1.25,6.34.83,7.68-3.78,2.54-.67,6.33,1.01,8.48,3.27l-12.24,7.59-49.51,30.34c-9.73,5.96-17.99,12.99-25.24,21.81-5.23,6.36-8.19,14.2-8.27,22.43-.06,6.6,4.3,10.35,10.96,10.37,10.06.03,20.45-3.66,28.04-11.25,15.84-15.83,31.76-30.34,49.54-44.31l54.86-43.12c1.01,3.98,5.49,3.89,5.87,7.44l-22.19,17.3,10.12,6.52c15.77-14.91,33.88-25.77,54.35-32.94,1.33,1.44,1.97,2.81,2.67,4.38-10.82,5.43-20.83,11.18-31.3,19.11,25.66,7.19,52.39,1.18,72.26-15.75,3.13.81,5.62,1.78,8.07,3.73l-5.47,5.71c-19.7,17.7-41.32,32.49-66.11,42.86,1.06,2.61,2.18,4.4,4.23,6.31,30.75-13.16,57.17-32.87,79.82-56.64,2.09.15,5.34-.12,6.74-1.79.96-1.15-.18-3.42-.81-3.91.09-.31.17-.72.07-1.13,1.3-.25,5.08-.17,5.53,1.52l2.92,10.81-3.19,2.99c-1.11-.24-2.62-.52-3.63,0-.93.48-1.07,2.86-.17,4.27-22.91,23.3-50.84,41.58-81.33,54.57-.41,2.41-.17,4.17,1.36,6.52,35.03-14.86,66.62-36.48,92.57-64.34l8.05-9.13c1.08.11,2.15-.11,2.91-.59,1.21-.76.84-2.61.84-3.63l6.21-8.75c3.04.86,3.97-1.36,5.69-3.22,2.09-2.28,9.49,2.44,9.57,3.65.12,1.8-2.51,1.91-3.25,2.56-2.08,1.83-.16,5.85,1.71,7.47-2.76,3.58-5.55,7.26-8.44,10.82-7.48-1.61-5.36,8.93-14.02,8.5l-.8,4.65c-2.46,1.57-3.58,3.91-3.06,6.67l-13.71,12.55c-1.42-2.11-3.48-2.19-5.49-1.05-1.12.63-1.08,2.87-2.23,4.5s-3.79,2.73-2.62,5.37c-96.02,76.23-228.56,80.22-329.12,8.45-77.81-55.53-122.12-148.05-115.75-243.57,4.91-73.49,38.92-141.28,93.91-189.39,94.41-82.57,228.64-93.1,333.49-21.71,71.58,48.74,117.43,127.27,122.2,213.96ZM391.51,167.69l-27,.43,20.96,16.25-7.72,25.82,22.19-14.94,22.32,15.06-5.06-16.38-2.69-9.3,21-16.53-26.4-.47-9.13-25.63-8.49,25.69ZM475.36,205.21l16.76,11.35-6.05-18.94,15.74-12.96-20.07-.89-6.3-19.92-7.07,20.29-19.95.55,15.66,12.34-5.41,19.48,16.69-11.29ZM317.96,184.05l-19.7.65,15.37,12.25-5.65,19.6,16.97-11.33,14.61,9.82c.2.8,1.17,1.23,1.6.28.4-1.66-.51-3.42-1.06-4.91l-1.94-5.26-2.16-8.27,15.62-12.18-20-.94-6.93-19.28-6.73,19.57ZM173.12,279.6c-20.91,38.88-31.18,81.86-30.73,126.32,2.4-.86,4.19-2.51,6.48-4.27.24-41.91,10.24-82.45,30.28-119.23,12.52-22.98,27.78-43.48,46.7-61.52,9.7-9.24,19.48-16.98,29.96-25.27,1.29-1.02-2.21-6-3.7-4.94-33.11,23.43-59.91,53.43-79,88.91ZM625.3,379.43l7.84,3.55c-6.57-76.39-47.46-141.37-112.11-182.23-1.53,2.38-2.76,4.36-3.3,7.09,17.24,11.48,32.87,23.63,46.78,38.63,34.23,36.92,55.66,82.79,60.79,132.96ZM220.66,251.74c-30.73,36.69-49.23,81.81-53.63,130.51,3.14-1.25,5.27-3.25,8.11-5.58,5.23-44.03,22.75-85.25,51.01-119.41,1.31-1.58,1.64-2.82,1.55-4.3,1.43-.05,2.38-.32,3.62-1.7,15.18-16.92,32.13-31.38,51.59-43.5-1.07-2.16-1.95-4.26-4.15-6.56-22.38,13.78-41.69,30.94-58.11,50.54ZM304.09,635.42c-83.74-35.27-141.88-112.62-153.18-202.39-1.83-2.97-4.31-5.37-7.45-8.55,8.56,96.63,70.53,180.94,160.36,217.75,1.09-1.57,2.6-5.81.26-6.8ZM174.81,463.34c-.67.82-1.22.84-.45,1.87l.45-1.87ZM175.79,465.04c-.45.15-.76.42-1.06.57,19.1,71.11,68.04,129.51,136.26,159.57,2.08-1.78,3.45-3.78,4.59-6.31-62.28-26.12-108.06-78.64-129.71-141.57l-10.09-12.26ZM272.87,555.25l.4-1.53c25.25,2.31,58.13,20.21,76.54,38.26l9.9-6.68c-12.57-9.52-23.75-18.12-34.82-28.2-18.99-17.3-43-26.06-68.92-24.25-9.49.66-18.42,1.34-28.12.24,14.72,38.7,55.69,60.62,96.08,49.32-16.38-12.38-33.08-21.13-51.08-27.16ZM486.92,648.31c-.53-19.69-17.85-33.25-33.51-43.73l-21.61-13.63-25.03,19.6c14.93,11.4,27.07,24.03,40.1,36.4,8.15,7.74,18.12,12.37,29.06,12.36,6.43,0,11.2-3.61,11-11Z"/>
  <path class="st0" d="M675.04,386.24c2.03,36.97-3.43,74.56-16.23,109.62-9.23,25.28-21.76,49.35-38.12,70.63-1.87-1.62-3.79-5.63-1.71-7.47.74-.65,3.37-.76,3.25-2.56-.08-1.21-7.48-5.92-9.57-3.65-1.71,1.87-2.64,4.08-5.69,3.22,4.83-6.8,9.44-13.57,13.69-20.59,26.77-44.17,39.48-96.69,36.64-148.37l5.86.3c2.77.18,4.99-.32,7.81.37l4.07-1.51Z"/>
  <path class="st0" d="M612.24,577.31l-5.35,6.57-12.54,13.26c-.52-2.76.59-5.09,3.06-6.67l.8-4.65c8.66.43,6.54-10.12,14.02-8.5Z"/>
  <path class="st0" d="M580.65,609.68c-3.15,2.88-6.28,6.73-10.34,8.81-1.17-2.64,1.52-3.82,2.62-5.37,1.15-1.62,1.12-3.86,2.23-4.5,2.01-1.14,4.07-1.06,5.49,1.05Z"/>
  <path class="st1" d="M657.3,387.08c2.84,51.68-9.87,104.21-36.64,148.37l-5.57-2.22,6.15-12,7.08-14.05,4.98-12.15,6.49-18.11,4.24-15.03,3.84-19.06,3.07-25.82.06-2,.13-10.98.12-6.99c-1.52-80.39-41.2-154.59-107.17-201.19-.33-2.1,1.21-4.66,3.12-5.97,65.5,46.55,105.67,117.13,110.08,197.2Z"/>
  <path class="st1" d="M567.88,387.6l-13.02,7.5c-1.33-4.67-.15-7.97,1.12-11.85l-15.2-13.21.02-7.09c2.28-.14,3.38,1.92,4.92,3.27l13.01,11.36c1.87,1.64,6.14-.61,8.08-1.69l2.29-46.82c-3.73-1.4-6.6-3.53-9.16-6.71l-19.07,6.92c-1.37.5-3.35-2.89-3.68-4.67l20.19-7.98.88-7.94-58.59-37.21c-1.38-.87-2.8-1.86-4.01-1.73s-3.95,1.78-3.51,3.28l5.83,19.98c-2.06.56-3.75.49-6.18.01l-5.74-18.96c-3.84-.02-6.73-.94-10.11-2.53l-19.11,19.09c-1.46-1.02-3.32-4.32-2.44-6.09l17.11-17.5-2.09-8.64-54.63-11.45c-2.27,1.91-3.73,4.44-5.55,7.1l8.14,17.36c-2.19.71-4.4.48-6.81-.1l-7.3-15.53c-7.51,1.34-14.23-1.55-16.65-9l-56.03,11.68-1.4,7.43,27.23,21.67c.59,1.55-.64,4.8-2.22,5.55l-29.06-22.88c-3.46,2.69-6.88,3.75-11.05,3.9l-7.87,24.37c-.48,1.48-4.86,1.15-6,.44l7.63-25.86c.29-1.35-3.2-4.33-4.37-3.59l-34.27,21.77-.55-6.7,33.01-20.95c-2.53-8.95,1.82-16.14,9.46-18.65,7.14-2.35,13.6,1.99,17.91,7.87l55.96-12.18c2.19-7.8,7.06-14.28,15.46-14.03s12.8,6.62,14.82,14.04l56.09,12.4c3.75-8.05,12.1-10.03,18.72-7.59,7.96,2.94,9.46,10.73,8.88,18.55l62.73,39.65c6.18-3.48,12.45-5.55,18.6-1.64,4.89,3.11,7.82,8.98,6.57,16.01-.94,5.29-5.94,9.21-11.7,11.43l-2.38,47.01c3.43,1.63,5.74,2.44,7.7,5.57-5.38,1.2-8.94,3.47-12.61,5.59Z"/>
  <path class="st5" d="M268.67,284.53l.55,6.7c-8.84,5.62-17.34,11.81-27.21,17-.6,3.01-.24,5.52.33,8.56l19.63,7.49c-.52,1.93-1.53,3.47-3.17,5.06l-18.8-6.89c-2.67,3.17-5.26,5.27-9.16,6.69l2.49,46.57c1.61,1.53,6.14,3.34,7.95,1.92,6.32-4.95,11.04-10.73,17.37-14.65l-.06,7.79-14.79,12.93c3.37,6.52,2.13,13.41-2.68,18.32l-22.94-17.24c.88-4.42,4.3-6.6,9.04-8.2l-2.47-47.18c-6.04-2.37-11.29-6.46-12.04-12.87s2.65-12.21,7.61-14.96c6.35-3.52,12.34-.72,17.67,2.25l30.68-19.28Z"/>
  <path class="st5" d="M304.09,635.42c2.34.99.82,5.22-.26,6.8-89.83-36.81-151.81-121.12-160.36-217.75,3.14,3.19,5.62,5.58,7.45,8.55,11.29,89.77,69.43,167.12,153.18,202.39Z"/>
  <path class="st1" d="M625.3,379.43c-5.13-50.17-26.56-96.04-60.79-132.96-13.91-15-29.54-27.15-46.78-38.63.54-2.73,1.77-4.71,3.3-7.09,64.65,40.86,105.54,105.84,112.11,182.23l-7.84-3.55Z"/>
  <path class="st5" d="M620.66,535.45c-4.25,7.02-8.86,13.79-13.69,20.59l-6.21,8.75c-1.99.74-2.64,2.96-3.75,4.23l-8.05,9.13c-25.95,27.86-57.54,49.48-92.57,64.34-1.52-2.35-1.77-4.11-1.36-6.52,30.5-12.99,58.42-31.27,81.33-54.57,1.88-.81,2.5-3.04,3.81-4.27l3.19-2.99c11.76-12.42,22.28-26.16,30.54-41.08l1.19.17,5.57,2.22Z"/>
  <path class="st5" d="M227.71,252.95c.08,1.48-.24,2.72-1.55,4.3-28.27,34.16-45.79,75.38-51.01,119.41-2.84,2.34-4.97,4.33-8.11,5.58,4.4-48.7,22.9-93.82,53.63-130.51,2.41,1.44,4.79,1.3,7.05,1.21Z"/>
  <polygon class="st1" points="475.36 205.21 458.67 216.49 464.08 197.01 448.42 184.67 468.37 184.12 475.44 163.84 481.73 183.76 501.8 184.65 486.06 197.61 492.11 216.56 475.36 205.21"/>
  <path class="st5" d="M179.15,282.42c-20.04,36.78-30.04,77.32-30.28,119.23-2.3,1.76-4.08,3.41-6.48,4.27-.45-44.46,9.82-87.43,30.73-126.32,1.99,1.13,3.65,2.84,6.03,2.82Z"/>
  <path class="st1" d="M179.15,282.42c-2.38.02-4.04-1.69-6.03-2.82,19.09-35.48,45.89-65.48,79-88.91,1.49-1.05,4.98,3.92,3.7,4.94-10.48,8.29-20.27,16.03-29.96,25.27-18.92,18.04-34.19,38.54-46.7,61.52Z"/>
  <path class="st5" d="M391.51,167.69c2.64,2.13,2.54,7.18,5.39,9.51l8.71,7.09c1.91,2.76,4.11,4.34,6.42,6.69,1.57,1.59,2.69,3.51,5.18,2.95l5.06,16.38-22.32-15.06-22.19,14.94,7.72-25.82-20.96-16.25,27-.43Z"/>
  <path class="st1" d="M417.22,193.93c-2.49.56-3.61-1.36-5.18-2.95-2.31-2.35-4.51-3.92-6.42-6.69l-8.71-7.09c-2.86-2.32-2.75-7.37-5.39-9.51l8.49-25.69,9.13,25.63,26.4.47-21,16.53,2.69,9.3Z"/>
  <path class="st0" d="M613.9,533.06c-8.27,14.92-18.79,28.66-30.54,41.08l-2.92-10.81c-.45-1.69-4.24-1.77-5.53-1.52l13.35-17.39,13.54-20.64c3.75,3.57,4.36,8.19,12.11,9.29Z"/>
  <path class="st1" d="M227.71,252.95c-2.26.09-4.63.22-7.05-1.21,16.41-19.6,35.73-36.77,58.11-50.54,2.2,2.29,3.08,4.39,4.15,6.56-19.46,12.12-36.41,26.58-51.59,43.5-1.24,1.38-2.18,1.65-3.62,1.7Z"/>
  <path class="st0" d="M639.79,476.92l-6.49,18.11c-2.17-.87-3.5-2.81-3.44-4.57.07-2.13.85-3.46,2.79-5.75l-3.86-1.58c-1.38-.56.2-3.1,1.21-3.81,1.1-.77,3.68,1.19,4.85.58,1.61-.84,2.67-3.82,4.95-2.98Z"/>
  <path class="st0" d="M647.88,442.83l-3.84,19.06c-1.18.14-3.1-.63-2.88-1.44l.95-3.49c-1.37-3.14-2.06-6.27-1.54-10.04.21-1.55-1.19-5.94,2.52-5.09l4.79,1Z"/>
  <path class="st0" d="M628.32,507.18l-7.08,14.05c-4.06-.42-.2-11.65,7.08-14.05Z"/>
  <path class="st0" d="M608.59,510.83l6.06-12.94c3.36,3.05-2.02,6.19-1.03,12.56-1.86.64-3.28.61-5.03.38Z"/>
  <path class="st0" d="M574.84,562.93c.63.5,1.78,2.77.81,3.91-1.4,1.67-4.66,1.94-6.74,1.79,1.86-1.95,3.2-4.82,5.93-5.71Z"/>
  <path class="st0" d="M651.27,397.04l-.12,6.99c-.78.35-2-.04-2.04-.67l-.21-3.37c-.07-1.19.13-2.47.63-2.91.31-.28,1.41-.19,1.75-.04Z"/>
  <path class="st0" d="M580.17,577.13c-1.31,1.23-1.92,3.46-3.81,4.27-.9-1.41-.76-3.79.17-4.27,1.01-.52,2.53-.24,3.63,0Z"/>
  <path class="st0" d="M617.63,489.4l-1.62-.49c1.22-1.01,1.17-3.63,3.7-3.58l-2.08,4.07Z"/>
  <path class="st0" d="M597,569.01c1.11-1.26,1.76-3.48,3.75-4.23,0,1.02.37,2.87-.84,3.63-.76.48-1.83.71-2.91.59Z"/>
  <path class="st0" d="M651.02,415.01l-.06,2c-.56.03-1.67-.16-1.94-.58-.31-.48.01-1.21.56-1.26l1.44-.15Z"/>
  <path class="st3" d="M540.81,362.95c.01-3-.69-6.38-.44-9.93,1.24-17.73-9.18-33.23-26.03-38.49-1.01-.31.94-16.23-8.34-16.22l-28.99.04c-6.19,0-9,8.12-7.28,13.84-3.44,1.97-7.03,1.43-10.34.66l-9.01-22.19c-3.71-9.14-12.45-14.09-22.41-14.07l-43.94.06c-10.56.02-19.44,5.34-23.35,15.08l-8.5,21.23-8.04.37-13.17-.02c-.87,0-2.64.42-3.41-.37s-.32-3.5-.75-4.73c-1.51-4.35-6.28-3.85-9.74-3.74l-19.99.64c-3.1.1-3.78,4.73-3.25,7.93-19.87,1.56-35.01,17.04-35.12,36.94l-.07,12.99c-6.33,3.92-11.05,9.69-17.37,14.65-1.8,1.41-6.33-.39-7.95-1.92l-2.49-46.57c3.9-1.41,6.5-3.52,9.16-6.69l18.8,6.89c1.64-1.59,2.65-3.13,3.17-5.06l-19.63-7.49c-.57-3.04-.93-5.54-.33-8.56,9.87-5.19,18.37-11.38,27.21-17l34.27-21.77c1.16-.74,4.66,2.24,4.37,3.59l-7.63,25.86c1.14.71,5.52,1.04,6-.44l7.87-24.37c4.17-.15,7.59-1.2,11.05-3.9l29.06,22.88c1.59-.75,2.81-4,2.22-5.55l-27.23-21.67,1.4-7.43,56.03-11.68c2.42,7.44,9.14,10.34,16.65,9l7.3,15.53c2.41.57,4.63.8,6.81.1l-8.14-17.36c1.82-2.65,3.29-5.19,5.55-7.1l54.63,11.45,2.09,8.64-17.11,17.5c-.88,1.77.98,5.07,2.44,6.09l19.11-19.09c3.38,1.59,6.26,2.5,10.11,2.53l5.74,18.96c2.44.48,4.12.55,6.18-.01l-5.83-19.98c-.44-1.5,2.32-3.16,3.51-3.28s2.64.86,4.01,1.73l58.59,37.21-.88,7.94-20.19,7.98c.33,1.79,2.32,5.17,3.68,4.67l19.07-6.92c2.57,3.18,5.43,5.32,9.16,6.71l-2.29,46.82c-1.94,1.08-6.2,3.33-8.08,1.69l-13.01-11.36c-1.55-1.35-2.65-3.41-4.92-3.27Z"/>
  <path class="st5" d="M317.96,184.05c1.37,4.53,4.65,7.18,9.27,8.84,3,1.08,5.46,4.48,8.77,3.99l2.16,8.27c-2.46-.44-2.55,1.7-2.12,3.34.47,1.78,2.26,2.01,4.06,1.92.55,1.5,1.46,3.25,1.06,4.91l-1.6-.28-14.61-9.82-16.97,11.33,5.65-19.6-15.37-12.25,19.7-.65Z"/>
  <path class="st1" d="M335.99,196.89c-3.31.49-5.77-2.91-8.77-3.99-4.61-1.66-7.9-4.31-9.27-8.84l6.73-19.57,6.93,19.28,20,.94-15.62,12.18Z"/>
  <path class="st1" d="M338.15,205.15l1.94,5.26c-1.8.09-3.6-.14-4.06-1.92-.43-1.65-.34-3.78,2.12-3.34Z"/>
  <path class="st1" d="M339.55,215.04l1.6.28c-.43.95-1.4.52-1.6-.28Z"/>
  <path class="st0" d="M567.88,387.6c-.14,1.83-.47,4.39,1.42,5.1l2.56.96c.33.12.41.89.32,1.62l-12.81,8.11c-20.36,12.89-40.75,37.6-42.38,62.57l-.93,14.16c-.46,7.05-4.51,13.85-10.43,18.56l-29,23.05c-22.35,16.08-45.14,30.73-68.17,45.01-2.14-2.25-5.94-3.93-8.48-3.27-1.34,4.61-5.47,2.53-7.68,3.78l-11.58-7.69c7.45-5.63,1.89-10.22,3.64-12.62.96-1.31,4.84-.2,5.09-2.3.05-.44-.14-1.08-.15-1.8,4.51,4.38,11.12,5.47,16.88,3.02s8.79-7.94,9.01-14.74l61.02-21.05,19.72-14.85c-5.23-4.58-11.51-3.74-16.59-.83-3.66,2.09-5.02,6.19-5.44,10.75l-58.2,19.61c-1.52.51-2.43.4-3.24-.69-.74-1.01-.22-1.74.71-2.88l20.71-25.29c2.46-3,5.22-5.51,6.56-9.07l63.36-.15c2.3-2.91,3.06-6.38,3.19-9.69l.23-6.09c.65-17.48,6.84-33.74,17.09-47.46,2.76-1.83,3.84-5.24,5.99-7.26l9.94-9.35.52-36.79,15.2,13.21c-1.27,3.88-2.46,7.18-1.12,11.85l13.02-7.5Z"/>
  <path class="st0" d="M604.17,487.94c-.49,3.41-3.78,6.73-1.6,7.17,2.02.4,4.43-2.52,8.43-2.01l-4.67,4.38c-6.34,14.66-14.11,28.29-23,41.14-7.88,11.4-17.34,21.81-26.89,31.78-2.44-1.96-4.93-2.92-8.07-3.73,10.64-9.07,18.64-20.29,23.74-33.55-10.36,1.07-19.87.26-30.13-.31-23.32-1.29-45.46,6.17-63.01,21.14l-16.51,14.09c-.38-3.55-4.86-3.46-5.87-7.44l45.91-38c12.07-9.99,27.79-19.9,42.41-17.3,19.41,3.45,38.46-1.45,54.14-14.32,1.58-1.3,3.17-2.74,5.11-3.02Z"/>
  <path class="st4" d="M548.38,566.65c-19.87,16.92-46.6,22.94-72.26,15.75,10.47-7.93,20.49-13.68,31.3-19.11,9.49-4.76,19.04-7.32,28.78-11.01-11.14.77-21.19,3.03-31.44,6.62-20.47,7.17-38.58,18.02-54.35,32.94l-10.12-6.52,22.19-17.3,16.51-14.09c17.55-14.97,39.69-22.43,63.01-21.14,10.25.57,19.77,1.37,30.13.31-5.09,13.26-13.09,24.49-23.74,33.55Z"/>
  <path class="st5" d="M486.92,648.31c.2,7.39-4.57,10.99-11,11-10.94,0-20.91-4.62-29.06-12.36-13.03-12.37-25.17-25-40.1-36.4l25.03-19.6,21.61,13.63c15.66,10.48,32.98,24.04,33.51,43.73ZM477.04,645.84c-1.34-11.28-9.44-18.25-16.72-25.24-9.25-7.43-18.85-13.57-29.05-19.87-1.1,1.07-1.43,3.95-.57,4.61l27.07,19.85c7.85,5.75,13.68,13.01,19.27,20.64Z"/>
  <path class="st5" d="M366.99,486.76l25.97,32.4c4.75-2.4,9.29-2.48,14.15.01l25.92-32.43,7.44.08c-1.34,3.56-4.1,6.06-6.56,9.07l-20.71,25.29c-.93,1.14-1.45,1.87-.71,2.88.81,1.1,1.72,1.2,3.24.69l58.2-19.61c.43-4.56,1.79-8.65,5.44-10.75,5.08-2.91,11.36-3.75,16.59.83l-19.72,14.85-61.02,21.05c-.22,6.81-3.44,12.38-9.01,14.74s-12.37,1.36-16.88-3.02c-2.85-2.77-3.93-7.24-4.47-11.76l-59.8-20.08c-7.38-4.78-13.77-9.96-20.91-16.24,5.86-4.7,14.92-3.35,19.44,2.62l2.48,7.74,58.23,19.61c1.81.61,2.91.3,3.59-1.32.44-1.05-.87-1.8-1.59-2.7l-24.6-30.4c-.96-1.19-1.7-2.13-1.81-3.5l7.11-.07Z"/>
  <path class="st5" d="M174.36,465.21c-.76-1.03-.22-1.05.45-1.87.28,1.15.83,1.53.97,1.71l10.09,12.26c21.64,62.93,67.43,115.44,129.71,141.57-1.14,2.53-2.51,4.53-4.59,6.31-68.23-30.06-117.16-88.46-136.26-159.57-.12-.14-.29-.29-.37-.41Z"/>
  <path class="st5" d="M588.25,544.41l-13.35,17.39c.1.41.02.82-.07,1.13-2.73.89-4.07,3.76-5.93,5.71-22.65,23.77-49.07,43.48-79.82,56.64-2.05-1.91-3.17-3.71-4.23-6.31,24.79-10.38,46.41-25.16,66.11-42.86l5.47-5.71c9.55-9.96,19.01-20.38,26.89-31.78,2.45,1.71,4.67,3.01,4.92,5.8Z"/>
  <path class="st1" d="M617.63,489.4l-2.98,8.48-6.06,12.94-6.8,12.94-13.54,20.64c-.26-2.79-2.47-4.09-4.92-5.8,8.88-12.85,16.66-26.48,23-41.14l4.67-4.38,5.01-4.18,1.62.49Z"/>
  <path class="st0" d="M507.42,563.29c-.7-1.57-1.34-2.94-2.67-4.38,10.26-3.59,20.3-5.86,31.44-6.62-9.74,3.69-19.28,6.24-28.78,11.01Z"/>
  <path class="st4" d="M273.27,553.72c-1.94-.18-4.34-1.8-6.29-.24,2.2,1.56,4.31,1.23,5.9,1.76,18,6.04,34.7,14.79,51.08,27.16-40.39,11.3-81.36-10.62-96.08-49.32,9.7,1.1,18.62.42,28.12-.24,25.92-1.81,49.93,6.95,68.92,24.25,11.06,10.08,22.24,18.68,34.82,28.2l-9.9,6.68c-18.41-18.05-51.29-35.95-76.54-38.26Z"/>
  <path class="st0" d="M273.27,553.72l-.4,1.53c-1.58-.53-3.7-.21-5.9-1.76,1.96-1.56,4.35.06,6.29.24Z"/>
  <path class="st0" d="M595.07,386.84l-3.9.48c-.61-1.87.25-2.74,2.32-2.41,1.08.17,1.85.44,1.58,1.93Z"/>
  <path class="st0" d="M433.03,486.74l-25.92,32.43c-4.86-2.49-9.4-2.41-14.15-.01l-25.97-32.4,66.03-.02Z"/>
  <path class="st0" d="M633.96,395.96c-1.32-1.56-3.45-3.62-5.03-4.76,1.98-1.94,5.52-1.48,6.59,1.15.69,1.7-.09,3.2-1.56,3.61Z"/>
  <path class="st5" d="M188.28,396.73l7.7,6.31,48.56,43.32c1.9,1.69,5.2,2.87,6.75.72.92-1.28.57-4.28-.76-5.56,5.56-1.95,9.04-1.53,14.18-7.17,12.12,10.05,19.91,23,19.42,39.73-.34,11.85,6.03,21.64,14.95,28.77l16.21,12.97c21.39,15.68,43.37,29.82,65.44,43.73l11.58,7.69-23.22,13.14c-23.02-17.24-44.28-35.14-66.08-53.27-17.77-14.77-29.35-23.29-52.94-21.54-15.03,1.12-28.76-4.02-39.03-14.67l-13.29-13.78c-17.23-19.77-32.84-40.26-48.8-61.1-1.06-1.38.14-3.9,1.02-4.42s3.01-1.02,4.28.28l61.88,62.9c1.9,1.94,3.76,2.24,5.54,1.12,1.41-.88,2.27-4.1.89-5.55l-25.35-26.6-34.58-38.35c-1.29-1.43-1.72-2.88-1.07-4.37.49-1.13,1.59-2,2.87-1.93,1.42.07,2.07,1.13,3.3,2.29l64.14,60.57c1.76,1.66,5.01.28,5.67-1.06.92-1.86.33-3.67-1.27-5.29l-48.63-49.17c-2.14-2.16-3.6-3.88-5.41-5.71,1.88-1.67,3.53-3.27,6.06-4.02Z"/>
  <path class="st1" d="M264.72,434.35c-5.14,5.64-8.62,5.22-14.18,7.17l-27.97-27.09-34.43-32.51c-1.38-1.3-1.63-3.16-.95-4.39.55-.98,3.42-1.7,4.94-.64,21.34,14.87,41.45,30.81,61.7,47.14l10.89,10.32Z"/>
  <path class="st1" d="M188.28,396.73c-2.52.75-4.18,2.35-6.06,4.02l-7.47-7.52c-1.7-1.71-.94-4.45.84-5.24,1.92-.86,3.32.38,4.75,1.67l7.93,7.07Z"/>
  <path class="st1" d="M226.38,491.16c-1.11-.25-.63-1.61.4-1.2.43.57.89.72.93.65,7.6,3.04,15.53,4.94,24.26,3.96,7.34.58,14.29,1.3,20.43,5.45-8.69-1.15-16.05-2.49-24.41-1.88-7.6.55-14.76-2-20.73-6.34l-.88-.64Z"/>
  <path class="st0" d="M277.33,481.02l-3.49-.31c-2.4-7.57-.76-19.16-6.99-32.3,6.83,5.39,8.92,13.27,9.57,21.33l.91,11.28Z"/>
  <path class="st1" d="M380.1,569.42c1.26.77,1.27,2.44-.23,3.09-8.21-5.66-16.48-10.43-23.45-17.52l23.68,14.43Z"/>
  <path class="st1" d="M277.33,481.02c.4,5,3.5,9.35,5.61,13.38l1.09.92c.35,1.08-1.06,1.55-1.32.36-.09-.27-.32-.51-.75-.62-4.16-3.98-6.42-8.98-8.13-14.36l3.49.31Z"/>
  <path class="st1" d="M350.05,550.6c.55.8,1.34,0,.54-.54l.91.95c.12.13.36.29.48.5s.3.42.51.49l1.49.51s.54.63,1.86,1.27c-1.83-2.16-3.24-.75-1.08,1.08-.63-1.31-1.27-1.88-1.27-1.85l-1.5-.5c-.21-.07-.38-.27-.51-.49s-.36-.38-.48-.5l-.96-.91Z"/>
  <path class="st1" d="M344.05,546.6c.55.8,1.34,0,.55-.55.5.7.74.88.91.94l1.48.51c.21.07.38.27.51.49s.36.38.49.5l.96.91c-.55-.8-1.34,0-.54.54l-.91-.95-.5-.49-.5-.5c-.56.28-1.26-.09-1.5-.48-.09-.15-.26-.38-.95-.93Z"/>
  <rect class="st0" x="266.15" y="447.15" width=".71" height=".71" transform="translate(-238.37 319.51) rotate(-45)"/>
  <rect class="st1" x="284.15" y="497.15" width=".71" height=".71" transform="translate(-268.46 346.89) rotate(-45)"/>
  <path class="st1" d="M628.93,391.2c1.58,1.14,3.71,3.2,5.03,4.76,7.24,8.55,7.71,20.28,5.79,30.98-.64.54-.63,1.3-.79,2.16-2.59,14.21-10.01,27.85-18.16,39.47-1.09.87-1.84,2.02-2.08,3.33-.33.26-.74.77-.75,1.19-1.62.64-2.67,2.08-3.41,3.66l-10.39,11.18c-1.95.28-3.53,1.72-5.11,3.02-15.69,12.87-34.73,17.77-54.14,14.32l-.26-6.22c-4.81.96-6.67-2.69-9.82-4.75-5.61-3.66-13.56-7.84-14.76-11.44-.35-1.05-.92-2.3-1.75-2.68-.7-.32-1.58-.25-2.24-.08l.93-14.16c1.63-24.97,22.02-49.68,42.38-62.57l12.81-8.11,18.98-7.95,3.9-.48c11.34-3.03,24.13-2.69,33.87,4.36ZM540.84,486.25c14.12,8.48,30.79,6.95,45.32-1.31,16.19-10.74,29.33-26.72,34.05-46.71-8.15,10.62-13.92,21.07-23.5,29.45-16.4,14.34-33.63,21.95-55.87,18.57Z"/>
  <path class="st5" d="M544.91,505.28c-14.62-2.6-30.34,7.31-42.41,17.3l-45.91,38-54.86,43.12c-17.78,13.97-33.7,28.48-49.54,44.31-7.59,7.59-17.98,11.28-28.04,11.25-6.66-.02-11.03-3.77-10.96-10.37.08-8.23,3.04-16.07,8.27-22.43,7.26-8.81,15.51-15.84,25.24-21.81l49.51-30.34,12.24-7.59c23.03-14.28,45.81-28.93,68.17-45.01l29-23.05c5.92-4.71,9.97-11.51,10.43-18.56.67-.17,1.55-.24,2.24.08.83.38,1.41,1.62,1.75,2.68,1.19,3.6,9.14,7.78,14.76,11.44,3.15,2.05,5.01,5.71,9.82,4.75l.26,6.22ZM444.06,554.65c4.92-1.88,7.76-5.32,11.87-8.34-4.34,2.06-8.9,4.35-11.87,8.34ZM443.11,556c0-.61-.5-1.11-1.11-1.11s-1.11.5-1.11,1.11.5,1.11,1.11,1.11,1.11-.5,1.11-1.11ZM349.94,619.43l33.01-22.55c19.4-13.25,39.87-24.36,57.7-40l-68.05,40.59c-12.17,8.23-24.3,15.19-34.85,25.2-6.95,6.59-13.8,13.52-14.78,23.79,7.86-10.68,16.06-19.58,26.97-27.03Z"/>
  <path class="st0" d="M614.56,476.75c.74-1.59,1.8-3.02,3.41-3.66-.03.93-.11,1.99-.63,2.76s-1.91.86-2.79.91Z"/>
  <path class="st0" d="M618.73,471.9c.23-1.31.98-2.46,2.08-3.33.2.77.45,2.06.04,2.76-.31.54-1.44.76-2.12.57Z"/>
  <path class="st0" d="M638.96,429.1c.16-.87.14-1.63.79-2.16.4.16.82.57,1.06.85.45.54.11,1.19-.35,1.2l-1.5.11Z"/>
  <path class="st0" d="M540.84,486.25c22.24,3.38,39.47-4.23,55.87-18.57,9.58-8.37,15.35-18.82,23.5-29.45-4.72,19.99-17.86,35.97-34.05,46.71-14.53,8.26-31.2,9.79-45.32,1.31Z"/>
  <path class="st1" d="M349.94,619.43c-10.91,7.45-19.11,16.36-26.97,27.03.98-10.27,7.84-17.2,14.78-23.79,10.55-10.01,22.68-16.97,34.85-25.2l68.05-40.59c-17.83,15.64-38.3,26.75-57.7,40l-33.01,22.55Z"/>
  <path class="st1" d="M444.06,554.65c2.96-3.98,7.53-6.28,11.87-8.34-4.11,3.01-6.95,6.46-11.87,8.34Z"/>
  <circle class="st1" cx="442" cy="556" r="1.11"/>
  <path class="st1" d="M477.04,645.84c-5.59-7.63-11.43-14.89-19.27-20.64l-27.07-19.85c-.85-.66-.52-3.54.57-4.61,10.19,6.3,19.8,12.44,29.05,19.87,7.28,6.99,15.38,13.96,16.72,25.24Z"/>
  <path class="st4" d="M317.07,304.47c-1.02,2.91,1.93,4.85,3.14,7.23,2.29,4.51,5.15,7.44,10.75,7.01.32-1.97.32-3.72,0-5.39l13.17.02c.02,3.17,2.41,4.76,5.02,6.62,2.79,2,4.59,5.26,8.35,5.93l-2.54,8.42c2.3-.96,4.08-2.07,5.89-3.6,3.34,1.06,5.14,4.26,6.32,7.49-31.55,19.21-44.33,58.6-30.08,92.68,14.25,34.08,51.26,52.64,87.1,43.67,35.84-8.97,59.75-42.77,56.27-79.55,4.97-.62,4.66-4.81,9.68-3.18l.09,19.67c3.06.28,6.67-1.14,6.91-4.18l.5-6.39,5.66-1.34c.6,4.61.36,9.2-1.38,13.44-3.4,3.39-7.59,5.3-13.2,5.88-4.78,25.26-20.94,45.43-43.25,57.98l61.51.09c-.12,3.32-.89,6.78-3.19,9.69l-63.36.15-7.44-.08-66.03.02-7.11.07-62.66-.15c-2.61-2.76-3.19-6.31-3.42-9.66,9.41,1.51,20.26-5.98,20.31-16.89l.35-75.95c.02-5.21,2.45-9.45,5.01-13.62l5.99-9.75c1.73.26,5.39.79,6.8-.52l7.58-12.28,8.95-24.72-52.8-.29c-3-.02-5.54.28-7.99,1.03-9.88,3.03-18.61,11.9-19.08,23.06.93,1.2,5.12,1.25,5.95-.07,1.88-8.33,7.31-15.14,15.17-17.75s16.67-1.8,23.57,2.98c6.19,4.29,7.1,12.62,2.02,17.74-2.26,2.28-6.86,4.23-10.59,4.25l-35.95.18c-.39,2-.54,4.12.06,6.49l48.93.26c-3.29,6.83-9.42,11.96-9.49,19.11l-.74,79.45c-.07,7.71-8.4,12.26-14.52,10.71-.92-13.52-5.62-26.41-15.5-36.31l-3.16-4.07-.12-14.84-.06-35.23c-.01-6.48,4.03-10.95,10.77-12.49l-16.32-.24-.15,47.79c0,2.98.32,6.07-.95,9.1l-9.25-8.1-.05-45.3.06-7.79.07-12.99c.1-19.9,15.25-35.37,35.12-36.94-.53-3.2.15-7.83,3.25-7.93l19.99-.64ZM304.92,346.01c2.64-1.02,4.17-2.31,4.57-4.96.3-1.96-.56-4.34-2.77-5.86-3.66-2.51-8.53-2.88-12.72-1.1-3.63,1.54-5.05,6.38-2.46,9.35,3.44,3.95,8.79,4.35,13.39,2.58ZM366.22,476.93l-9.38-6.27-39.58.06-5.41,6.24,54.36-.04Z"/>
  <path class="st5" d="M325.47,360.8l-5.99,9.75c-2.56,4.17-4.98,8.42-5.01,13.62l-.35,75.95c-.05,10.91-10.9,18.4-20.31,16.89l-.45-6.57c6.12,1.55,14.45-3,14.52-10.71l.74-79.45c.07-7.16,6.19-12.28,9.49-19.11l-48.93-.26c-.6-2.37-.45-4.49-.06-6.49l35.95-.18c3.73-.02,8.33-1.97,10.59-4.25,3.35,5.02,10.2,6.51,9.81,10.82Z"/>
  <path class="st5" d="M274.59,415.22l.12,14.84c-2.72-1.38-4.58-3.94-6.82-5.9,1.27-3.03.94-6.12.95-9.1l5.76.16Z"/>
  <path class="st2" d="M540.81,362.95l-.02,7.09-.52,36.79-9.94,9.35-.35-69.24c-.08-12.07-11.02-23.45-22.84-23.54l-44.1-.35,9.94,27.03c7.64,10.2,12.95,21.51,15.98,34.18,9.73,2.3,15.18,5.49,14.38,15.35l-5.66,1.34c.17-2.2-.42-4.63-1.63-6.4-1.41-2.06-3.84-2.04-5.87-2.7-5.01-1.63-4.71,2.56-9.68,3.18-2.42-25.65-17.88-48.24-40.91-59.79-23.03-11.55-50.38-10.42-72.38,2.98-1.18-3.23-2.98-6.44-6.32-7.49,3.08-2.6,3.61-7.34,5.72-11.42,9.35-.06,18.34.29,27.64-.92s19.07.16,28.78.45l22.28.66,3.75,8.55c1.26,2.88,4.36,4.39,7.01,5.86l1.02-.44-15.48-39.06c-2.03-5.12-7.07-8.12-12.6-8.11l-46.93.1c-4.96.01-9.93,3.28-11.75,7.81l-12.8,31.7c-3.76-.67-5.56-3.93-8.35-5.93-2.61-1.87-5.01-3.45-5.02-6.62l8.04-.37,8.5-21.23c3.9-9.75,12.78-15.07,23.35-15.08l43.94-.06c9.95-.01,18.7,4.93,22.41,14.07l9.01,22.19c3.32.77,6.91,1.31,10.34-.66-1.71-5.72,1.09-13.83,7.28-13.84l28.99-.04c9.28-.01,7.34,15.91,8.34,16.22,16.84,5.26,27.27,20.76,26.03,38.49-.25,3.54.45,6.92.44,9.93ZM477.63,306.27l-.03,7.14h3.33s.03-7.13.03-7.13h-3.33ZM485.5,306.05l-.19,7.24,3.64.1.19-7.24-3.64-.1ZM494.03,306l-.06,7.39,3.42.03.06-7.39-3.42-.03ZM502.05,306.06l-.12,7.36,3.41.05.12-7.36-3.41-.05ZM457.98,334.32l-1.23.33c.34.81,1.33.53,1.23-.33Z"/>
  <path class="st0" d="M480.82,402.04c0-41.28-33.47-74.75-74.75-74.75s-74.75,33.47-74.75,74.75,33.47,74.75,74.75,74.75,74.75-33.47,74.75-74.75ZM445.65,346.15c26.81,18.96,36.4,54.28,22.85,84.2-11.39,25.16-36.77,41.02-64.37,40.23s-52.04-18.07-61.97-43.83c-9.94-25.76-3.44-54.98,16.49-74.09,23.69-22.74,60.19-25.46,87-6.5Z"/>
  <path class="st1" d="M530.32,416.17c-2.15,2.02-3.23,5.42-5.99,7.26l-.22-36.84-.02-25.67-37.11.31c.23,3.32,1.37,4.45,2.18,6.52l4.83,12.33c8.45,1.48,14.99,7.75,14.98,15.86v12.94c0,3.1-1.72,4.68-2.76,6.63-1.93-.07-3.54-.82-4.26-2.47,1.74-4.25,1.98-8.83,1.38-13.44.8-9.86-4.65-13.05-14.38-15.35-3.03-12.66-8.34-23.97-15.98-34.18l-9.94-27.03,44.1.35c11.82.09,22.76,11.47,22.84,23.54l.35,69.24ZM524.07,354.18c2.04-14.58-7.76-25.3-21.06-25.16l-31.53-.02,9,25.4,43.59-.22Z"/>
  <path class="st5" d="M506.21,415.5c-2.37,4.44-6.85,7.14-12.86,8.17-4.18,18.82-14.99,34.33-29.64,46.98l43.54.24-.23,6.09-61.51-.09c22.3-12.55,38.47-32.72,43.25-57.98,5.61-.57,9.8-2.49,13.2-5.88.72,1.65,2.34,2.4,4.26,2.47Z"/>
  <path class="st1" d="M325.47,360.8c.39-4.31-6.46-5.8-9.81-10.82,5.07-5.12,4.17-13.44-2.02-17.74-6.9-4.79-15.93-5.52-23.57-2.98-1.2-1.75-1.9-3.42-2.05-5.24,2.45-.75,4.99-1.05,7.99-1.03l52.8.29-8.95,24.72-7.58,12.28c-1.41,1.32-5.07.79-6.8.52ZM332.01,353.54l8.9-24.53-23.16.17c6.94,6.23,7.98,14.97,7.35,24.01.45,1.66,5.11,1.9,6.91.35Z"/>
  <path class="st1" d="M274.59,415.22l-5.76-.16.15-47.79,16.32.24c-6.73,1.54-10.78,6.01-10.77,12.49l.06,35.23Z"/>
  <polygon class="st5" points="366.22 476.93 311.86 476.98 317.27 470.73 356.85 470.67 366.22 476.93"/>
  <path class="st1" d="M304.92,346.01c-4.6,1.77-9.94,1.38-13.39-2.58-2.59-2.97-1.17-7.81,2.46-9.35,4.18-1.77,9.06-1.41,12.72,1.1,2.21,1.52,3.07,3.9,2.77,5.86-.4,2.65-1.93,3.95-4.57,4.96Z"/>
  <path class="st5" d="M288.02,324.03c.14,1.82.85,3.49,2.05,5.24-7.86,2.61-13.29,9.42-15.17,17.75-.83,1.32-5.02,1.27-5.95.07.47-11.15,9.2-20.03,19.08-23.06Z"/>
  <path class="st1" d="M497.67,400.93l-.5,6.39c-.24,3.04-3.85,4.46-6.91,4.18l-.09-19.67c2.03.66,4.46.63,5.87,2.7,1.21,1.77,1.8,4.21,1.63,6.4Z"/>
  <path class="st2" d="M330.96,313.32c.31,1.67.31,3.42,0,5.39-5.61.43-8.47-2.5-10.75-7.01-1.21-2.38-4.16-4.32-3.14-7.23,3.46-.11,8.23-.61,9.74,3.74.43,1.23,0,3.96.75,4.73s2.54.37,3.41.37Z"/>
  <path class="st4" d="M524.11,386.59l.22,36.84c-10.26,13.72-16.44,29.98-17.09,47.46l-43.54-.24c14.65-12.64,25.46-28.16,29.64-46.98,6.01-1.03,10.49-3.73,12.86-8.17,1.04-1.95,2.75-3.53,2.75-6.63v-12.94c3.17-.38,6.39.66,9.66-.31-.76-2.97-.66-5.17.44-6.98.93-1.52,2.93-2.34,5.05-2.05ZM503.3,456.12c0-2.94-2.39-5.33-5.33-5.33s-5.33,2.39-5.33,5.33,2.39,5.33,5.33,5.33,5.33-2.39,5.33-5.33Z"/>
  <rect class="st1" x="483.61" y="307.9" width="7.24" height="3.64" transform="translate(164.86 788.67) rotate(-88.5)"/>
  <rect class="st1" x="492.02" y="307.99" width="7.39" height="3.43" transform="translate(182.12 802.96) rotate(-89.55)"/>
  <rect class="st1" x="500.01" y="308.06" width="7.36" height="3.41" transform="translate(186.04 808.52) rotate(-89.1)"/>
  <rect class="st1" x="475.71" y="308.19" width="7.15" height="3.33" transform="translate(167.55 787.91) rotate(-89.77)"/>
  <path class="st1" d="M360.87,330.71c-1.82,1.53-3.6,2.63-5.89,3.6l2.54-8.42,12.8-31.7c1.83-4.52,6.79-7.8,11.75-7.81l46.93-.1c5.54-.01,10.58,2.99,12.6,8.11l15.48,39.06.91.87c.11.87-.89,1.15-1.23.33-.09-.22-.24-.5-.71-.76-2.65-1.47-5.75-2.98-7.01-5.86l-3.75-8.55-22.28-.66c-9.71-.29-19.1-1.7-28.78-.45s-18.29.86-27.64.92c-2.11,4.08-2.64,8.83-5.72,11.42ZM442.82,313.51l-5.74-14.62c-1.46-3.68-4.88-6.6-9.16-6.6l-43.83.03c-4.63,0-7.95,3.09-9.56,7.23l-5.44,14.08,73.73-.13Z"/>
  <path class="st5" d="M365.83,356.92c-25.92,23.31-26.94,64.13-1.19,88.47,5.79,5.47,11.7,10.26,19.39,11.6l1.02,1.01,7.75,2.51c1.36.44,2.74.48,4.2.48h1c.15.24.44.53.78.64.43.13.99-.34,1.24-.61,2.2.88,5.05,1.16,8.02,1.07,23.93-.74,43.6-15.18,53.4-36.24,2.44,1.69,4.18,3.76,7.07,4.48-11.39,25.16-36.77,41.02-64.37,40.23s-52.04-18.07-61.97-43.83c-9.94-25.76-3.44-54.98,16.49-74.09l7.18,4.28Z"/>
  <path class="st1" d="M468.5,430.34c-2.88-.72-4.62-2.79-7.07-4.48l1.06-3.86c7.56-19.53,3.54-42.47-10.57-58.96-21.74-25.4-60.33-27.85-84.82-6.04l-1.28-.08-7.18-4.28c23.69-22.74,60.19-25.46,87-6.5s36.4,54.28,22.85,84.2Z"/>
  <path class="st2" d="M524.07,354.18l-43.59.22-9-25.4,31.53.02c13.3-.14,23.1,10.58,21.06,25.16ZM510.03,341.51c0-2.51-2.04-4.55-4.55-4.55s-4.55,2.04-4.55,4.55,2.04,4.55,4.55,4.55,4.55-2.04,4.55-4.55Z"/>
  <path class="st2" d="M524.11,386.59c-2.12-.29-4.12.53-5.05,2.05-1.1,1.81-1.2,4.01-.44,6.98-3.27.97-6.5-.08-9.66.31,0-8.1-6.53-14.37-14.98-15.86l-4.83-12.33c-.81-2.07-1.95-3.2-2.18-6.52l37.11-.31.02,25.67Z"/>
  <path class="st2" d="M442.82,313.51l-73.73.13,5.44-14.08c1.6-4.15,4.92-7.23,9.56-7.23l43.83-.03c4.28,0,7.7,2.92,9.16,6.6l5.74,14.62ZM430.77,307.99c-.16-5-1.08-7.84-3.14-10.78h-43.19c-2.49,3.25-4.15,7.23-2.83,11.07l49.16-.3Z"/>
  <path class="st4" d="M332.01,353.54c-1.79,1.54-6.46,1.31-6.91-.35.63-9.04-.41-17.78-7.35-24.01l23.16-.17-8.9,24.53Z"/>
  <circle class="st5" cx="497.97" cy="456.12" r="5.33"/>
  <path class="st3" d="M452.58,382.86c-4.79,6.54-10.42,13.71-16.52,12.1.5-9.64-.73-19.44-6.14-29.07-4.29,5.82-8.99,10.13-15.4,12.66l-16.47,6.5-4.17,2.66c-14.91,7.81-21.4,25.41-16.49,41.55l3.22-5.41c1.01,1.03,2.15,1.38,3.62,1.4-4.06,8.91-4.3,20.33,2.26,27.9,2.09,2.41,4.18,4.62,6.55,5.58l-.24,1.79-7.75-2.51c-.22-.49-.66-.75-1.02-1.01-3.6-3.59-5.85-8.71-7.53-13.56-12.38-9.82-20.28-23.67-20.91-39.15s6.02-30.82,17.87-40.79c12.55-10.56,29.54-14.38,46.57-9.79,13.95,3.75,26.76,14.65,32.55,29.16ZM402.73,362.35c2.3-.53,4.6-1.54,5.4-3.64-24.57-1.75-47.34,18.22-44.75,43.97,5.86-20.12,18.48-35.48,39.35-40.33Z"/>
  <path class="st4" d="M396.85,409.55c1.78.77,3.15,1.72,4.61,2.98l-3.7,5.22c-2.34,3.31-4.71,6.09-6.19,10.93,11.76-.03,23.43-5.28,30.19-14.88,2.97.07,4.98,1.69,7.65,2.46-8.92,13.69-22.12,19.97-39.93,20.41-1.28,9,5.09,15.48,14.48,15.92,23.4,1.08,44.1-14.62,50.7-36.91l7.83,6.33-1.06,3.86c-9.8,21.06-29.47,35.5-53.4,36.24-2.97.09-5.82-.2-8.02-1.07l-2.02-.03h-1c-.87-1.49-2.51-1.68-3.97-2.27-2.37-.97-4.46-3.17-6.55-5.58-6.56-7.57-6.32-18.99-2.26-27.9,2.82-6.18,7.32-11.72,12.63-15.7Z"/>
  <path class="st4" d="M373.46,363.49c-11.85,9.97-18.5,25.38-17.87,40.79s8.52,29.33,20.91,39.15c1.68,4.85,3.93,9.97,7.53,13.56-7.69-1.34-13.6-6.13-19.39-11.6-25.75-24.33-24.73-65.16,1.19-88.47l1.28.08c2.21,1.8,4.25,3.72,6.35,6.49Z"/>
  <path class="st0" d="M397,461c-1.47,0-2.85-.04-4.2-.48l.24-1.79c1.46.59,3.09.78,3.97,2.27Z"/>
  <path class="st0" d="M400.02,461.03c-.25.27-.81.75-1.24.61-.34-.1-.63-.4-.78-.64l2.02.03Z"/>
  <path class="st0" d="M385.05,458.01l-1.02-1.01c.36.26.8.52,1.02,1.01Z"/>
  <path class="st2" d="M462.5,422l-7.83-6.33c3.2-10.79,1.99-22.59-2.08-32.82-5.79-14.51-18.6-25.4-32.55-29.16-17.03-4.59-34.02-.77-46.57,9.79-2.1-2.77-4.14-4.69-6.35-6.49,24.5-21.8,63.08-19.36,84.82,6.04,14.11,16.49,18.13,39.43,10.57,58.96Z"/>
  <circle class="st1" cx="505.48" cy="341.51" r="4.55"/>
  <path class="st3" d="M430.77,307.99l-49.16.3c-1.32-3.84.34-7.83,2.83-11.06h43.19c2.06,2.93,2.98,5.77,3.14,10.77Z"/>
  <path class="st0" d="M454.66,415.68c-6.6,22.29-27.3,38-50.7,36.91-9.39-.44-15.76-6.92-14.48-15.92,17.81-.44,31.01-6.72,39.93-20.41,4.1-6.29,6.24-13.63,6.64-21.31,6.1,1.61,11.73-5.56,16.52-12.1,4.08,10.23,5.28,22.02,2.08,32.82Z"/>
  <path class="st0" d="M421.76,413.8c-6.76,9.6-18.43,14.86-30.19,14.88,1.48-4.84,3.85-7.63,6.19-10.93l3.7-5.22c3.75-3.68,8.97-6.93,11.08-13.06-6.83,1.59-11.01,6.59-15.69,10.09-5.31,3.97-9.81,9.52-12.63,15.7-1.47-.02-2.61-.37-3.62-1.4l2.64-5.47c.92-10.85,6.73-19.66,16.02-25.02l9.18-3.78c6.59-2.72,12.56-4.97,18.89-9.52,2.39,12.07,1.11,24.25-5.57,33.75Z"/>
  <path class="st2" d="M436.05,394.95c-.4,7.68-2.54,15.01-6.64,21.31-2.67-.78-4.69-2.4-7.65-2.46,6.68-9.5,7.96-21.68,5.57-33.75-6.33,4.55-12.3,6.8-18.89,9.52l-9.18,3.78c-1.64-2.35-3.34-4.07-5.39-5.65l4.17-2.66,16.47-6.5c6.4-2.53,11.1-6.84,15.4-12.66,5.41,9.63,6.64,19.43,6.14,29.07Z"/>
  <path class="st4" d="M393.87,387.7c2.06,1.59,3.76,3.3,5.39,5.65-9.29,5.35-15.1,14.17-16.02,25.02l-2.64,5.47-3.22,5.41c-4.91-16.15,1.58-33.74,16.49-41.55Z"/>
  <path class="st1" d="M402.73,362.35c-20.87,4.84-33.49,20.2-39.35,40.33-2.58-25.74,20.18-45.72,44.75-43.97-.81,2.11-3.11,3.11-5.4,3.64Z"/>
  <path class="st2" d="M401.46,412.52c-1.46-1.26-2.83-2.21-4.61-2.98,4.68-3.5,8.86-8.5,15.69-10.09-2.11,6.13-7.33,9.39-11.08,13.06Z"/>
</svg>
