<?xml version="1.0" encoding="UTF-8"?>
<svg id="Layer_1" data-name="Layer 1" xmlns="http://www.w3.org/2000/svg" viewBox="0 0 800 800">
  <defs>
    <style>
      .cls-1 {
        fill: #fff;
      }
    </style>
  </defs>
  <path class="cls-1" d="M0,800V0h800v800H0ZM278.88,230.42c1.85-23.14,16.99-40.94,38.79-46.93,15.76-4.33,31.9-2.8,46.94,3.98,16.13,7.26,26.58,22.55,27.34,40.47h5.55s-2.14-56.08-2.14-56.08c-12.48.92-23.27-.02-34.95-2.17-14.69-2.7-29.14-3.54-43.84-1.17-39.99,6.82-66.11,36.4-65.52,77.49.25,17.7,6.03,33.06,17.88,46.24,8.82,8.8,18.62,16.5,29.28,24.37,4.7-11.17,9.88-21.17,16.01-31.08-8.83-6.28-16.98-12.4-23.8-19.78-8.41-10.19-12.66-21.53-11.55-35.34ZM570.76,433.72c13.05-37.4,12.53-78.64-1.83-115.59-13.51-34.75-40.28-61.58-75.08-74.99-36.74-14.17-77.87-13.79-114.36,1.42-36.44,15.19-63.7,45.85-75.26,83.65-10.93,35.73-10,74.42,3.24,109.28,14.61,38.44,45.38,67.21,84.51,79.56,72.31,22.83,152.82-8.99,178.77-83.33ZM351.79,507.99c-14.38,3.9-28.07,4.93-42.26,3.62-36.36-3.38-68.4-26.35-75.09-63.19-4.86-26.73,2.04-53.73,19.7-74.65l-4.71-4.74c-29.26,28.24-38.15,71.38-20.19,107.9,9.29,18.9,25.33,32.77,44.42,41.39,28.68,12.95,70.16,13.57,100.01,1.96l-21.87-12.3ZM261,629.56c4.31-3.23,5.55-7.8,4.81-12.76-.56-3.75-4.06-7.61-8.51-9l-12.22-3.84c-3.78-1.19-5.78-4.78-4.99-8.36.72-3.25,4.1-5.63,7.78-5.8,5.22-.25,9.09,1.52,10.45,6.96l7.17-.3c-1.95-10.06-10.87-13.11-19.69-11.85-5.18.74-9.82,3.74-11.46,8.39-1.45,4.11-1.6,10.02,2.54,13.24,8.42,6.55,23.4,3.84,22.58,14.28-.32,4.02-3.42,6.62-7.84,7.14-5.54.64-10.62-1.47-11.93-7.77l-6.79-.18c.7,5.49,3.05,8.81,7.37,11.12,6.46,3.47,14.53,3.37,20.74-1.29ZM448.4,608.79c0-13.36-10.83-24.19-24.19-24.19s-24.19,10.83-24.19,24.19,10.83,24.19,24.19,24.19,24.19-10.83,24.19-24.19ZM318.6,621.93l3.92,10.8,6.86-.32-17.82-47.22-7.45-.06-17.51,47.29,6.72.29,3.84-10.81,21.44.03ZM375.9,611.01l.09-5.25-17.75-.04v-15.65s19.86-.06,19.86-.06c.34-1.14.32-3.83-.05-5.08l-26.18.16.14,47.75,26.5-.11.03-5.31-20.25-.09-.03-16.35,17.65.03ZM496.6,632.73l7.64-.22-11.98-19.82c7.88-2.06,11.67-7.78,11.08-15.23-.47-5.94-5.34-12.08-12.63-12.19l-19.68-.3.02,47.19,6.42.55-.03-19.59,7.84.27,11.31,19.35ZM556.74,621.95l3.73,10.71,6.92-.27-17.75-47-7.58-.28-17.42,47.31,6.82.2,3.75-10.73,21.51.05Z"/>
  <path d="M570.76,433.72c-25.95,74.35-106.46,106.16-178.77,83.33-39.13-12.35-69.9-41.12-84.51-79.56-13.25-34.85-14.17-73.55-3.24-109.28,11.56-37.8,38.82-68.46,75.26-83.65,36.49-15.21,77.62-15.59,114.36-1.42,34.79,13.42,61.57,40.24,75.08,74.99,14.36,36.95,14.88,78.19,1.83,115.59ZM470.29,507.15c17.87-5.51,32.55-16.11,44.99-29.93,31.06-34.52,38.45-87.72,30.19-132.74-4.58-24.93-14.86-47.52-31.73-66.16-40.73-44.98-113.54-43.97-153,2.42-35,41.15-40.53,104.33-23.01,154.46,12.04,34.46,38.94,64.66,74.53,73.35,19.32,4.72,39.06,4.45,58.03-1.4Z"/>
  <path d="M278.88,230.42c-1.1,13.81,3.14,25.15,11.55,35.34,6.82,7.38,14.97,13.51,23.8,19.78-6.13,9.91-11.31,19.91-16.01,31.08-10.66-7.87-20.47-15.57-29.28-24.37-11.85-13.18-17.63-28.54-17.88-46.24-.58-41.09,25.53-70.66,65.52-77.49,14.7-2.37,29.15-1.53,43.84,1.17,11.68,2.15,22.47,3.08,34.95,2.17l2.14,56.07h-5.55c-.77-17.91-11.22-33.2-27.34-40.46-15.04-6.78-31.18-8.31-46.94-3.98-21.8,5.99-36.94,23.79-38.79,46.93Z"/>
  <path d="M351.79,507.99l21.87,12.3c-29.85,11.61-71.33,10.98-100.01-1.96-19.09-8.62-35.13-22.49-44.42-41.39-17.96-36.52-9.07-79.66,20.19-107.9l4.71,4.74c-17.66,20.92-24.55,47.91-19.7,74.65,6.69,36.83,38.74,59.8,75.09,63.19,14.2,1.3,27.89.27,42.26-3.62Z"/>
  <path d="M448.4,608.79c0,13.36-10.83,24.19-24.19,24.19s-24.19-10.83-24.19-24.19,10.83-24.19,24.19-24.19,24.19,10.83,24.19,24.19ZM438.77,619.16c4.29-7.29,3.44-16.89-1.6-23.28s-13.82-7.35-20.75-4.05-9.89,10.34-9.46,18.19,5.15,15.01,12,16.8c7.66,1.99,15.48-.29,19.81-7.65Z"/>
  <path d="M496.6,632.73l-11.31-19.35-7.84-.27.03,19.59-6.42-.55-.02-47.19,19.68.3c7.29.11,12.16,6.24,12.63,12.19.59,7.45-3.2,13.17-11.08,15.23l11.98,19.82-7.64.22ZM488.42,607.75c5.61-.07,8.69-4.8,8.52-9.21s-3.77-8.5-8.92-8.45l-10.68.09.18,17.71,10.89-.13Z"/>
  <path d="M556.74,621.95l-21.51-.05-3.75,10.73-6.82-.2,17.42-47.31,7.58.28,17.75,47-6.92.27-3.73-10.71ZM554.61,616.58l-8.69-23.59-8.88,23.6h17.58Z"/>
  <path d="M318.6,621.93l-21.44-.03-3.84,10.81-6.72-.29,17.51-47.29,7.45.06,17.82,47.22-6.86.32-3.92-10.8ZM316.79,616.53l-9.05-23.26-8.64,23.36,17.7-.1Z"/>
  <path d="M261,629.56c-6.21,4.66-14.28,4.76-20.74,1.29-4.32-2.32-6.68-5.64-7.37-11.12l6.79.18c1.31,6.29,6.4,8.41,11.93,7.77,4.42-.51,7.53-3.11,7.84-7.14.82-10.44-14.16-7.73-22.58-14.28-4.13-3.21-3.99-9.13-2.54-13.24,1.64-4.65,6.28-7.65,11.46-8.39,8.82-1.26,17.74,1.78,19.69,11.85l-7.17.3c-1.37-5.44-5.23-7.21-10.45-6.96-3.68.17-7.07,2.55-7.78,5.8-.79,3.57,1.21,7.17,4.99,8.36l12.22,3.84c4.45,1.4,7.95,5.26,8.51,9,.74,4.96-.5,9.53-4.81,12.76Z"/>
  <path d="M375.9,611.01l-17.65-.03.03,16.35,20.25.09-.03,5.31-26.5.11-.14-47.75,26.18-.16c.37,1.25.4,3.94.05,5.08l-19.84.06v15.65s17.74.04,17.74.04l-.09,5.25Z"/>
  <path class="cls-1" d="M470.29,507.15c-18.97,5.85-38.71,6.12-58.03,1.4-35.59-8.69-62.49-38.89-74.53-73.35-17.52-50.13-12-113.31,23.01-154.46,39.47-46.39,112.28-47.4,153-2.42,16.87,18.63,27.15,41.23,31.73,66.16,8.27,45.02.87,98.22-30.19,132.74-12.44,13.82-27.12,24.42-44.99,29.93ZM409.73,497.9c30.17-29.31,36.2-74.74,19.44-111.13-7.39-16.04-18.76-28.61-31.81-40.17-15.33-11.78-30.19-22.75-46.33-33.78-5.07,10.85-8.25,21.47-10.44,33.25,26.28,18.33,54.71,36.63,62.04,69.07,5.7,25.23-.1,50.99-17.98,69.91,7.82,5.72,15.59,10.32,25.07,12.86Z"/>
  <path class="cls-1" d="M438.77,619.16c-4.33,7.36-12.15,9.65-19.81,7.65-6.85-1.78-11.56-8.76-12-16.8s2.84-15.04,9.46-18.19,15.64-2.42,20.75,4.05,5.89,15.99,1.6,23.28Z"/>
  <path class="cls-1" d="M488.42,607.75l-10.89.13-.18-17.71,10.68-.09c5.15-.04,8.75,3.97,8.92,8.45s-2.91,9.14-8.52,9.21Z"/>
  <polygon class="cls-1" points="554.61 616.58 537.03 616.59 545.92 592.99 554.61 616.58"/>
  <polygon class="cls-1" points="316.79 616.53 299.09 616.63 307.73 593.27 316.79 616.53"/>
  <path d="M409.73,497.9c-9.49-2.53-17.26-7.14-25.07-12.86,17.87-18.91,23.67-44.67,17.98-69.91-7.33-32.44-35.76-50.74-62.04-69.07,2.19-11.78,5.37-22.4,10.44-33.25,16.14,11.02,30.99,21.99,46.33,33.78,13.05,11.57,24.42,24.13,31.81,40.17,16.76,36.4,10.73,81.83-19.44,111.13Z"/>
</svg>